<svg width="2218" height="394" viewBox="0 0 2218 394" fill="none" xmlns="http://www.w3.org/2000/svg">
<path d="M2083.09 292.714L2215.61 124.565V105.747H2049.06V129.764H2179.18L2046.67 297.514V316.332H2218V292.714H2083.09Z" fill="url(#paint0_linear_5575_76490)"/>
<path d="M1942.04 59.7086H1913.63V105.747H1876V129.764H1913.63V316.332H1942.04V129.764H2006.1V105.747H1942.04V59.7086Z" fill="url(#paint1_linear_5575_76490)"/>
<path d="M1804.75 216.243C1804.75 264.278 1777.13 292.714 1733.1 292.714C1693.06 292.714 1669.85 269.894 1669.85 225.053V105.747H1641.41V227.857C1641.41 288.322 1676.66 318.337 1730.28 318.337C1763.91 318.337 1791.14 303.529 1805.95 277.897V316.341H1833.19V105.747H1804.75V216.243Z" fill="url(#paint2_linear_5575_76490)"/>
<path d="M1511.5 104.15C1475.07 104.15 1446.66 118.958 1431.44 144.59V105.747H1404.23V316.332H1432.64V205.836C1432.64 157.801 1461.08 129.764 1506.31 129.764C1546.35 129.764 1569.57 152.584 1569.57 197.026V316.332H1597.98V194.222C1597.97 133.784 1562.74 104.15 1511.5 104.15Z" fill="url(#paint3_linear_5575_76490)"/>
<path d="M1352.17 97.7442V155.397C1346.96 154.997 1342.96 154.598 1338.16 154.598C1303.72 154.598 1280.91 173.416 1280.91 214.646V316.332H1218.46V100.947H1278.1V129.374C1293.32 108.551 1318.94 97.7442 1352.17 97.7442Z" fill="#13304C"/>
<path d="M1179.64 226.251H1016.71C1022.71 253.072 1045.53 269.486 1078.36 269.486C1101.18 269.486 1117.59 262.681 1132.41 248.671L1165.63 284.702C1145.62 307.521 1115.59 319.535 1076.76 319.535C1002.3 319.535 953.857 272.689 953.857 208.639C953.857 144.182 1003.1 97.7442 1068.75 97.7442C1132 97.7442 1180.84 140.181 1180.84 209.438C1180.84 214.247 1180.04 221.052 1179.64 226.251ZM1015.91 189.821H1122C1117.6 162.601 1097.18 144.98 1069.16 144.98C1040.72 144.98 1020.31 162.202 1015.91 189.821Z" fill="#13304C"/>
<path d="M917.172 193.024V316.332H854.722V202.633C854.722 167.8 838.708 151.786 811.089 151.786C781.066 151.786 759.445 170.205 759.445 209.837V316.332H696.995V19.2774H759.445V123.368C776.258 106.554 800.274 97.7442 827.902 97.7442C878.747 97.7442 917.172 127.369 917.172 193.024Z" fill="#13304C"/>
<path d="M661.516 208.639C661.516 276.3 614.681 319.535 554.227 319.535C527.407 319.535 505.387 311.124 489.373 293.512V394H426.923V100.947H486.569V125.772C502.184 106.954 525.402 97.7442 554.227 97.7442C614.681 97.7442 661.516 140.979 661.516 208.639ZM598.268 208.639C598.268 171.411 574.65 148.991 543.421 148.991C512.2 148.991 488.574 171.411 488.574 208.639C488.574 245.868 512.191 268.288 543.421 268.288C574.65 268.288 598.268 245.868 598.268 208.639Z" fill="#13304C"/>
<path d="M375.021 100.947H312.571V316.332H375.021V100.947Z" fill="url(#paint4_linear_5575_76490)"/>
<path d="M368.447 10.2098C354.829 -3.40919 332.755 -3.40032 319.146 10.2187C305.545 23.8289 305.545 45.8943 319.154 59.5045C332.764 73.1146 354.82 73.1146 368.438 59.5133C382.057 45.8943 382.057 23.82 368.447 10.2098Z" fill="url(#paint5_linear_5575_76490)"/>
<path d="M194.698 251.564C181.505 259.478 166.068 264.029 149.575 264.029C133.091 264.029 117.645 259.478 104.452 251.564C92.049 244.12 81.6332 233.704 74.2162 221.3C66.3024 208.107 61.7511 192.687 61.7511 176.202C61.7511 159.717 66.3024 144.271 74.2162 131.078C81.6598 118.674 92.0756 108.258 104.479 100.841C117.671 92.9266 133.091 88.3751 149.575 88.3751C166.059 88.3751 181.479 92.9266 194.671 100.841C207.074 108.258 217.49 118.674 224.934 131.078L269.391 86.6183C260.794 75.1553 250.618 64.9521 239.129 56.3814C214.154 37.6697 183.147 26.5882 149.575 26.5882C116.003 26.5882 85.0046 37.6786 60.0299 56.3903C48.5495 64.9699 38.3645 75.1642 29.7675 86.6272C11.0831 111.603 0.00195312 142.612 0.00195312 176.211C0.00195312 209.811 11.0831 240.811 29.7675 265.768C38.3645 277.249 48.5407 287.435 60.0299 296.005C85.0046 314.717 116.012 325.79 149.584 325.79C183.156 325.79 214.163 314.708 239.138 296.005C250.618 287.426 260.803 277.249 269.4 265.768L224.943 221.309C217.517 233.713 207.101 244.129 194.698 251.564Z" fill="#13304C"/>
<defs>
<linearGradient id="paint0_linear_5575_76490" x1="1135.76" y1="-284.794" x2="1135.1" y2="490.247" gradientUnits="userSpaceOnUse">
<stop stop-color="#00EAEF"/>
<stop offset="1" stop-color="#1B75BC"/>
</linearGradient>
<linearGradient id="paint1_linear_5575_76490" x1="1125.44" y1="-164.745" x2="1125.11" y2="471.253" gradientUnits="userSpaceOnUse">
<stop stop-color="#00EAEF"/>
<stop offset="1" stop-color="#1B75BC"/>
</linearGradient>
<linearGradient id="paint2_linear_5575_76490" x1="1126.53" y1="-286.395" x2="1125.82" y2="481.335" gradientUnits="userSpaceOnUse">
<stop stop-color="#00EAEF"/>
<stop offset="1" stop-color="#1B75BC"/>
</linearGradient>
<linearGradient id="paint3_linear_5575_76490" x1="1126.37" y1="-286.546" x2="1125.64" y2="482.662" gradientUnits="userSpaceOnUse">
<stop stop-color="#00EAEF"/>
<stop offset="1" stop-color="#1B75BC"/>
</linearGradient>
<linearGradient id="paint4_linear_5575_76490" x1="1164.3" y1="-288.806" x2="1164.07" y2="468.964" gradientUnits="userSpaceOnUse">
<stop stop-color="#00EAEF"/>
<stop offset="1" stop-color="#1B75BC"/>
</linearGradient>
<linearGradient id="paint5_linear_5575_76490" x1="1126.11" y1="-321.797" x2="1123.68" y2="2019.39" gradientUnits="userSpaceOnUse">
<stop stop-color="#00EAEF"/>
<stop offset="1" stop-color="#1B75BC"/>
</linearGradient>
</defs>
</svg>
