<svg width="11" height="12" viewBox="0 0 11 12" fill="none" xmlns="http://www.w3.org/2000/svg">
<path d="M8.98147 1.4377H7.11357C7.02039 0.629713 6.33295 0 5.50036 0C4.6678 0 3.98045 0.629689 3.88727 1.4377H2.01928C1.26335 1.4377 0.648438 2.05279 0.648438 2.80869V2.87903C0.648438 3.45668 1.00812 3.95111 1.5148 4.15256V10.629C1.5148 11.3849 2.12979 12 2.88567 12H8.1151C8.871 12 9.48594 11.3849 9.48594 10.629V4.15259C9.9926 3.95111 10.3523 3.45668 10.3523 2.87906V2.80871C10.3523 2.05279 9.73734 1.4377 8.98147 1.4377ZM5.50036 0.650185C5.97389 0.650185 6.36914 0.989592 6.4566 1.4377H4.5443C4.63173 0.989567 5.02701 0.650185 5.50036 0.650185ZM8.83576 10.629C8.83576 11.0265 8.51239 11.3498 8.11508 11.3498H2.88564C2.48833 11.3498 2.16496 11.0264 2.16496 10.629V4.25002H8.83576V10.629ZM9.70212 2.87903C9.70212 3.27647 9.37876 3.59986 8.98144 3.59986H2.01928C1.62196 3.59986 1.2986 3.27647 1.2986 2.87903V2.80869C1.2986 2.41125 1.62196 2.08786 2.01928 2.08786H8.98147C9.37878 2.08786 9.70215 2.41125 9.70215 2.80869L9.70212 2.87903Z" fill="white"/>
<path d="M3.75745 10.5183C3.93699 10.5183 4.08253 10.3727 4.08253 10.1932V6.53287C4.08253 6.35338 3.93697 6.20776 3.75745 6.20776C3.57794 6.20776 3.43237 6.35338 3.43237 6.53287V10.1932C3.43235 10.3727 3.57791 10.5183 3.75745 10.5183Z" fill="white"/>
<path d="M5.50037 10.5183C5.67991 10.5183 5.82548 10.3727 5.82548 10.1932V6.53287C5.82548 6.35338 5.67986 6.20776 5.50037 6.20776C5.32086 6.20776 5.17529 6.35338 5.17529 6.53287V10.1932C5.17529 10.3727 5.32083 10.5183 5.50037 10.5183Z" fill="white"/>
<path d="M7.24332 10.5183C7.42283 10.5183 7.56837 10.3727 7.56837 10.1932V6.53287C7.56837 6.35338 7.42281 6.20776 7.24332 6.20776C7.06375 6.20776 6.91821 6.35338 6.91821 6.53287V10.1932C6.91819 10.3727 7.0638 10.5183 7.24332 10.5183Z" fill="white"/>
</svg>
