<svg width="103" height="131" viewBox="0 0 103 131" fill="none" xmlns="http://www.w3.org/2000/svg">
<circle cx="37" cy="37" r="37" fill="url(#paint0_linear_7107_2712)"/>
<rect x="36" y="23" width="3" height="70" fill="url(#paint1_linear_7107_2712)"/>
<rect x="27" y="49.1211" width="3" height="13.4942" transform="rotate(-45 27 49.1211)" fill="url(#paint2_linear_7107_2712)"/>
<rect width="3" height="10.2269" transform="matrix(0.707107 0.707107 0.707107 -0.707107 36.3384 42.2314)" fill="url(#paint3_linear_7107_2712)"/>
<rect x="25" y="92" width="25" height="39" fill="#13304C"/>
<circle cx="88" cy="75" r="15" fill="url(#paint4_linear_7107_2712)"/>
<rect x="88" y="70" width="1" height="27.7863" fill="url(#paint5_linear_7107_2712)"/>
<rect width="1" height="4.42283" transform="matrix(0.707107 0.707107 0.707107 -0.707107 88.1672 77.0205)" fill="url(#paint6_linear_7107_2712)"/>
<rect x="84.7173" y="79.4985" width="1" height="4.87431" transform="rotate(-45 84.7173 79.4985)" fill="url(#paint7_linear_7107_2712)"/>
<rect x="83" y="97" width="11" height="15.4809" fill="#13304C"/>
<defs>
<linearGradient id="paint0_linear_7107_2712" x1="38.845" y1="-54.2427" x2="38.6037" y2="88.0791" gradientUnits="userSpaceOnUse">
<stop stop-color="#00EAEF"/>
<stop offset="1" stop-color="#1883C2"/>
</linearGradient>
<linearGradient id="paint1_linear_7107_2712" x1="35.8929" y1="17.4318" x2="39.125" y2="17.4473" gradientUnits="userSpaceOnUse">
<stop stop-color="#1883C2"/>
<stop offset="1" stop-color="#08CCE2"/>
</linearGradient>
<linearGradient id="paint2_linear_7107_2712" x1="26.8929" y1="48.0477" x2="30.1231" y2="48.1277" gradientUnits="userSpaceOnUse">
<stop stop-color="#1883C2"/>
<stop offset="1" stop-color="#08CCE2"/>
</linearGradient>
<linearGradient id="paint3_linear_7107_2712" x1="-0.107143" y1="-0.813498" x2="3.12164" y2="-0.707979" gradientUnits="userSpaceOnUse">
<stop stop-color="#1883C2"/>
<stop offset="1" stop-color="#08CCE2"/>
</linearGradient>
<linearGradient id="paint4_linear_7107_2712" x1="88.748" y1="38.0097" x2="88.6501" y2="95.7077" gradientUnits="userSpaceOnUse">
<stop stop-color="#00EAEF"/>
<stop offset="1" stop-color="#1883C2"/>
</linearGradient>
<linearGradient id="paint5_linear_7107_2712" x1="87.9643" y1="67.7897" x2="89.0417" y2="67.7941" gradientUnits="userSpaceOnUse">
<stop stop-color="#1883C2"/>
<stop offset="1" stop-color="#08CCE2"/>
</linearGradient>
<linearGradient id="paint6_linear_7107_2712" x1="-0.0357143" y1="-0.351815" x2="1.04101" y2="-0.324694" gradientUnits="userSpaceOnUse">
<stop stop-color="#1883C2"/>
<stop offset="1" stop-color="#08CCE2"/>
</linearGradient>
<linearGradient id="paint7_linear_7107_2712" x1="84.6816" y1="79.1108" x2="85.7584" y2="79.1354" gradientUnits="userSpaceOnUse">
<stop stop-color="#1883C2"/>
<stop offset="1" stop-color="#08CCE2"/>
</linearGradient>
</defs>
</svg>
