<svg width="683" height="683" viewBox="0 0 683 683" fill="none" xmlns="http://www.w3.org/2000/svg">
<path d="M65.2001 15.0666C62.8001 16.6666 59.3334 20.1333 57.7334 22.5333C54.6667 26.9333 54.6667 27.7333 54.6667 65.7333C54.6667 102.533 54.8001 104.533 57.4667 109.333C63.2001 119.467 77.4667 123.2 86.8001 116.933C89.3334 115.333 92.6667 111.333 94.4001 108C97.0667 102.533 97.3334 100.267 97.3334 78.3999V74.6666C97.3334 63.6209 106.288 54.6666 117.333 54.6666H341.333H565.333C576.379 54.6666 585.333 63.6209 585.333 74.6666V261.2C585.333 403.733 585.733 468.933 586.8 471.6C588.933 477.333 596 483.867 601.6 485.467C611.067 488 622.533 482.533 626.133 473.867C627.733 470.133 628 433.2 628 248.267V32.5398C628 28.9729 626.932 25.4877 624.933 22.5333V22.5333C623.333 20.1333 619.867 16.6666 617.467 15.0666V15.0666C614.512 13.068 611.027 11.9999 607.46 11.9999H341.333H75.2066C71.6397 11.9999 68.1545 13.068 65.2001 15.0666V15.0666Z" fill="black"/>
<path d="M476.267 125.467C473.6 126.267 461.867 135.733 445.733 150.133L419.6 173.467L413.467 166.4C400.133 150.667 392.8 144.267 387.6 143.333C372 140.4 358.267 154.933 362.667 169.733C364.133 174.667 383.067 197.6 400.533 215.733C412.133 227.733 421.733 227.867 435.6 216.133C452.533 201.733 498 160.4 500.4 157.067C501.867 155.2 503.333 150.667 503.6 147.067C504.8 132.533 490.533 121.2 476.267 125.467Z" fill="black"/>
<path d="M25.3334 150.933C17.8667 156.133 15.3334 160.667 15.3334 169.067C15.3334 177.733 18.6667 183.867 25.7334 187.733C29.7334 189.867 40.1334 190 170.667 190.4L311.333 190.667L317.333 187.733C326.133 183.2 329.733 177.2 329.067 167.867C328.4 159.2 324.8 153.333 318.133 150.133C314 148.267 299.867 148 171.6 148H29.7334L25.3334 150.933Z" fill="black"/>
<path d="M68 220.133C66.1334 220.933 63.2 222.8 61.6 224.4C54.2667 231.2 54.6667 217.733 54.6667 445.067V655.6L57.7334 660.133C59.3334 662.533 62.8 666 65.2 667.6L69.7334 670.667H341.333H612.933L617.467 667.6C619.867 666 623.333 662.533 625.067 660C628.133 655.467 628.133 654.933 627.733 625.067C627.333 596.8 627.2 594.667 624.533 591.067C614.667 577.867 595.067 579.467 588 594.133C585.867 598.4 585.333 602.267 585.333 613.733V628H341.333H97.3334V432.267V236.533L94.4 230.667C89.6 221.2 77.4667 216.4 68 220.133Z" fill="black"/>
<path d="M513.6 248.133C510.933 248.933 499.2 258.4 483.067 272.8L456.933 296.133L450.8 289.067C437.467 273.333 430.133 266.933 424.933 266C409.333 263.067 395.6 277.6 400 292.4C401.467 297.333 420.4 320.267 437.867 338.4C449.467 350.4 459.067 350.533 472.933 338.8C489.867 324.4 535.333 283.067 537.733 279.733C539.2 277.867 540.667 273.333 540.933 269.733C542.133 255.2 527.867 243.867 513.6 248.133Z" fill="black"/>
<path d="M137.333 273.6C129.867 278.8 127.333 283.333 127.333 291.733C127.333 297.6 128 300.4 130.4 303.733C137.2 313.2 130.933 312.667 242 313.067L342 313.333L348 310.4C359.867 304.4 363.467 292.133 356.667 280.667C350.533 270.133 356.933 270.667 242.933 270.667H141.733L137.333 273.6Z" fill="black"/>
<path d="M540.267 376.133C537.6 376.933 525.867 386.4 509.733 400.8L483.6 424.133L477.467 417.067C464.133 401.333 456.8 394.933 451.6 394C436 391.067 422.267 405.6 426.667 420.4C428.133 425.333 447.067 448.267 464.533 466.4C476.133 478.4 485.733 478.533 499.6 466.8C516.533 452.4 562 411.067 564.4 407.733C565.867 405.867 567.333 401.333 567.6 397.733C568.8 383.2 554.533 371.867 540.267 376.133Z" fill="black"/>
<path d="M174.667 396.267C167.2 401.467 164.667 406 164.667 414.4C164.667 420.267 165.333 423.067 167.733 426.4C174.533 435.867 168.533 435.333 276.667 435.733L374 436L380 433.067C391.867 427.067 395.467 414.8 388.667 403.333C382.533 392.8 388.533 393.333 277.6 393.333H179.067L174.667 396.267Z" fill="black"/>
<path d="M238.667 518.933C231.2 524.133 228.667 528.667 228.667 537.067C228.667 545.733 232 551.867 239.067 555.733C243.067 557.867 256.267 558 448 558C652.133 558 652.667 558 657.333 555.2C664.267 551.2 668.267 543.467 667.6 535.6C666.933 528.4 664 523.467 657.333 518.933L652.933 516H448H243.067L238.667 518.933Z" fill="black"/>
</svg>
