<?xml version="1.0" encoding="UTF-8"?>
<svg id="Layer_2" data-name="Layer 2" xmlns="http://www.w3.org/2000/svg" xmlns:xlink="http://www.w3.org/1999/xlink" viewBox="0 0 500 500">
  <defs>
    <style>
      .cls-1 {
        fill: url(#linear-gradient);
      }

      .cls-2 {
        fill: #fff;
      }

      .cls-3, .cls-4 {
        fill: #13304c;
      }

      .cls-4 {
        font-family: MinionConceptRoman-Display, 'Minion Variable Concept';
        font-size: 35.45px;
        font-variation-settings: 'wght' 400, 'opsz' 36;
      }

      .cls-5 {
        fill: url(#linear-gradient-3);
      }

      .cls-6 {
        fill: url(#linear-gradient-4);
      }

      .cls-7 {
        fill: url(#linear-gradient-2);
      }

      .cls-8 {
        fill: url(#linear-gradient-6);
      }

      .cls-9 {
        fill: url(#linear-gradient-5);
      }
    </style>
    <linearGradient id="linear-gradient" x1="310.23" y1="481.47" x2="310.19" y2="435.88" gradientTransform="translate(0 502) scale(1 -1)" gradientUnits="userSpaceOnUse">
      <stop offset="0" stop-color="#00eaef"/>
      <stop offset="1" stop-color="#1b75bc"/>
    </linearGradient>
    <linearGradient id="linear-gradient-2" x1="298.96" y1="474.43" x2="298.94" y2="437.02" xlink:href="#linear-gradient"/>
    <linearGradient id="linear-gradient-3" x1="286.99" y1="481.58" x2="286.95" y2="436.42" xlink:href="#linear-gradient"/>
    <linearGradient id="linear-gradient-4" x1="273.1" y1="481.6" x2="273.05" y2="436.36" xlink:href="#linear-gradient"/>
    <linearGradient id="linear-gradient-5" x1="205" y1="481.77" x2="204.99" y2="437.2" xlink:href="#linear-gradient"/>
    <linearGradient id="linear-gradient-6" x1="205.01" y1="483.74" x2="204.87" y2="346.03" xlink:href="#linear-gradient"/>
  </defs>
  <g id="Layer_1-2" data-name="Layer 1">
    <g>
      <path class="cls-2" d="m0,0v500h500V0H0Zm250,375c-69.03,0-125-55.96-125-125s55.97-125,125-125,125,55.96,125,125-55.96,125-125,125Z"/>
      <path class="cls-3" d="m500,250v250H0v-250h125c0,69.04,55.97,125,125,125s125-55.96,125-125h125Z"/>
      <text class="cls-4" transform="translate(117.2 233.18) rotate(-76.08)"><tspan x="0" y="0">W</tspan></text>
      <text class="cls-4" transform="translate(125.32 202.84) rotate(-65.24)"><tspan x="0" y="0">E</tspan></text>
      <text class="cls-4" transform="translate(132.79 186.54) rotate(-57.58)"><tspan x="0" y="0">L</tspan></text>
      <text class="cls-4" transform="translate(142.25 171.25) rotate(-48.81)"><tspan x="0" y="0">C</tspan></text>
      <text class="cls-4" transform="translate(156.85 154.3) rotate(-38.73)"><tspan x="0" y="0">O</tspan></text>
      <text class="cls-4" transform="translate(175.74 138.67) rotate(-27.15)"><tspan x="0" y="0">M</tspan></text>
      <text class="cls-4" transform="translate(202.46 125.47) rotate(-16.87)"><tspan x="0" y="0">E</tspan></text>
      <text class="cls-4" transform="translate(220.06 120.4) rotate(-11.62)"><tspan x="0" y="0"> </tspan></text>
      <text class="cls-4" transform="translate(225.76 118.81) rotate(-5.79)"><tspan x="0" y="0">T</tspan></text>
      <text class="cls-4" transform="translate(246.46 116.48) rotate(4.02)"><tspan x="0" y="0">O</tspan></text>
      <text class="cls-4" transform="translate(271.27 118.73) rotate(10.54)"><tspan x="0" y="0"> </tspan></text>
      <text class="cls-4" transform="translate(277.14 119.41) rotate(16.3)"><tspan x="0" y="0">T</tspan></text>
      <text class="cls-4" transform="translate(297.3 125.04) rotate(26.33)"><tspan x="0" y="0">H</tspan></text>
      <text class="cls-4" transform="translate(319.9 136.49) rotate(35.73)"><tspan x="0" y="0">E</tspan></text>
      <text class="cls-4" transform="translate(334.63 147.4) rotate(40.96)"><tspan x="0" y="0"> </tspan></text>
      <text class="cls-4" transform="translate(339.37 150.98) rotate(46.73)"><tspan x="0" y="0">T</tspan></text>
      <text class="cls-4" transform="translate(353.74 166.34) rotate(55.16)"><tspan x="0" y="0">E</tspan></text>
      <text class="cls-4" transform="translate(365.01 182.55) rotate(63.91)"><tspan x="0" y="0">A</tspan></text>
      <text class="cls-4" transform="translate(374.14 199.93) rotate(74.62)"><tspan x="0" y="0">M</tspan></text>
      <g>
        <path class="cls-1" d="m307.3,54.45l7.79-9.89v-1.11h-9.8v1.41h7.65l-7.8,9.87v1.11h10.08v-1.39h-7.94Z"/>
        <path class="cls-7" d="m299.01,40.74h-1.67v2.71h-2.21v1.41h2.21v10.97h1.67v-10.97h3.77v-1.41h-3.77v-2.71Z"/>
        <path class="cls-5" d="m290.93,49.95c0,2.83-1.62,4.5-4.21,4.5-2.36,0-3.72-1.34-3.72-3.98v-7.02h-1.67v7.18c0,3.56,2.07,5.32,5.23,5.32,1.98,0,3.58-.87,4.45-2.38v2.26h1.6v-12.39h-1.67v6.5Z"/>
        <path class="cls-6" d="m273.68,43.36c-2.14,0-3.81.87-4.71,2.38v-2.28h-1.6v12.39h1.67v-6.5c0-2.83,1.67-4.47,4.33-4.47,2.36,0,3.72,1.34,3.72,3.96v7.02h1.67v-7.18c0-3.56-2.07-5.3-5.09-5.3Z"/>
        <path class="cls-3" d="m264.31,42.98v3.39c-.31-.02-.54-.05-.82-.05-2.03,0-3.37,1.11-3.37,3.53v5.98h-3.67v-12.67h3.51v1.67c.9-1.22,2.4-1.86,4.36-1.86Z"/>
        <path class="cls-3" d="m254.16,50.54h-9.58c.35,1.58,1.7,2.54,3.63,2.54,1.34,0,2.31-.4,3.18-1.22l1.95,2.12c-1.18,1.34-2.94,2.05-5.23,2.05-4.38,0-7.23-2.76-7.23-6.52s2.9-6.52,6.76-6.52,6.59,2.5,6.59,6.57c0,.28-.05.68-.07.99Zm-9.63-2.14h6.24c-.26-1.6-1.46-2.64-3.11-2.64s-2.87,1.01-3.13,2.64Z"/>
        <path class="cls-3" d="m238.72,48.59v7.25h-3.67v-6.69c0-2.05-.94-2.99-2.57-2.99-1.77,0-3.04,1.08-3.04,3.41v6.26h-3.67v-17.47h3.67v6.12c.99-.99,2.4-1.51,4.03-1.51,2.99,0,5.25,1.74,5.25,5.6Z"/>
        <path class="cls-3" d="m223.68,49.5c0,3.98-2.76,6.52-6.31,6.52-1.58,0-2.87-.49-3.82-1.53v5.91h-3.67v-17.24h3.51v1.46c.92-1.11,2.28-1.65,3.98-1.65,3.56,0,6.31,2.54,6.31,6.52Zm-3.72,0c0-2.19-1.39-3.51-3.23-3.51s-3.23,1.32-3.23,3.51,1.39,3.51,3.23,3.51,3.23-1.32,3.23-3.51Z"/>
        <path class="cls-9" d="m206.83,43.17h-3.67v12.67h3.67v-12.67Z"/>
        <path class="cls-8" d="m206.44,37.83c-.8-.8-2.1-.8-2.9,0-.8.8-.8,2.1,0,2.9.8.8,2.1.8,2.9,0,.8-.8.8-2.1,0-2.9Z"/>
        <path class="cls-3" d="m196.22,52.03c-.78.47-1.68.73-2.65.73s-1.88-.27-2.65-.73c-.73-.44-1.34-1.05-1.78-1.78-.47-.78-.73-1.68-.73-2.65s.27-1.88.73-2.65c.44-.73,1.05-1.34,1.78-1.78.78-.47,1.68-.73,2.65-.73s1.88.27,2.65.73c.73.44,1.34,1.05,1.78,1.78l2.62-2.62c-.51-.67-1.1-1.27-1.78-1.78-1.47-1.1-3.29-1.75-5.27-1.75s-3.8.65-5.27,1.75c-.68.5-1.27,1.1-1.78,1.78-1.1,1.47-1.75,3.29-1.75,5.27s.65,3.8,1.75,5.27c.51.68,1.1,1.27,1.78,1.78,1.47,1.1,3.29,1.75,5.27,1.75s3.8-.65,5.27-1.75c.68-.5,1.27-1.1,1.78-1.78l-2.62-2.62c-.44.73-1.05,1.34-1.78,1.78Z"/>
      </g>
    </g>
  </g>
</svg>