<svg width="400" height="400" viewBox="0 0 400 400" fill="none" xmlns="http://www.w3.org/2000/svg">
<g clip-path="url(#clip0_609_5114)">
<path fill-rule="evenodd" clip-rule="evenodd" d="M32 0C14.3269 0 0 14.3269 0 32V368C0 385.673 14.3269 400 32 400H368C385.673 400 400 385.673 400 368V32C400 14.3269 385.673 0 368 0H32ZM204 141C195.163 141 188 148.163 188 157V285C188 293.837 195.163 301 204 301H332C340.837 301 348 293.837 348 285V157C348 148.163 340.837 141 332 141H204Z" fill="#13304C"/>
<path opacity="0.25" fill-rule="evenodd" clip-rule="evenodd" d="M45.8812 47.8852C45.8812 32.4609 33.3638 19.9426 17.9406 19.9426C33.3638 19.9426 45.8812 7.42432 45.8812 -8C45.8812 7.42432 58.3986 19.9426 73.8218 19.9426C58.3986 19.9426 45.8812 32.4609 45.8812 47.8852ZM103.383 47.8852C103.383 32.4609 90.8656 19.9426 75.4424 19.9426C90.8656 19.9426 103.383 7.42432 103.383 -8C103.383 7.42432 115.9 19.9426 131.324 19.9426C115.9 19.9426 103.383 32.4609 103.383 47.8852ZM160.941 47.8852C160.941 32.4609 148.423 19.9426 133 19.9426C148.423 19.9426 160.941 7.42432 160.941 -8C160.941 7.42432 173.458 19.9426 188.881 19.9426C173.458 19.9426 160.941 32.4609 160.941 47.8852ZM218.442 47.8852C218.442 32.4609 205.925 19.9426 190.502 19.9426C205.925 19.9426 218.442 7.42432 218.442 -8C218.442 7.42432 230.96 19.9426 246.383 19.9426C230.96 19.9426 218.442 32.4609 218.442 47.8852ZM248.004 19.9426C263.427 19.9426 275.944 32.4609 275.944 47.8852C275.944 32.4609 288.462 19.9426 303.885 19.9426C288.462 19.9426 275.944 7.42432 275.944 -8C275.944 7.42432 263.427 19.9426 248.004 19.9426ZM333.502 47.8852C333.502 32.4609 320.984 19.9426 305.561 19.9426C320.984 19.9426 333.502 7.42432 333.502 -8C333.502 7.42432 346.019 19.9426 361.442 19.9426C346.019 19.9426 333.502 32.4609 333.502 47.8852ZM363.119 19.9426C378.542 19.9426 391.059 32.4609 391.059 47.8852C391.059 32.4609 403.577 19.9426 419 19.9426C403.577 19.9426 391.059 7.42432 391.059 -8C391.059 7.42432 378.542 19.9426 363.119 19.9426ZM366.248 77.0572C379.939 77.0572 391.059 88.1783 391.059 101.87C391.059 88.1783 402.18 77.0572 415.871 77.0572C402.18 77.0572 391.059 65.936 391.059 52.2441C391.059 65.936 379.939 77.0572 366.248 77.0572ZM391.059 155.911C391.059 143.952 381.392 134.284 369.433 134.284C381.392 134.284 391.059 124.615 391.059 112.6C391.059 124.56 400.727 134.228 412.685 134.228C400.727 134.228 391.059 143.896 391.059 155.911ZM391.004 172.9C401.219 172.9 409.5 181.182 409.5 191.398V191.454C409.5 201.67 401.219 209.952 391.004 209.952C380.788 209.952 372.507 201.67 372.507 191.454V191.398C372.507 181.182 380.788 172.9 391.004 172.9ZM406.427 248.513C406.427 240.025 399.547 233.145 391.059 233.145C382.572 233.145 375.692 240.025 375.692 248.513C375.692 257.001 382.572 263.881 391.059 263.881C399.547 263.881 406.427 257.001 406.427 248.513ZM391.031 293.445C397.775 293.445 403.241 298.912 403.241 305.656C403.241 312.4 397.775 317.867 391.031 317.867C384.288 317.867 378.821 312.4 378.821 305.656C378.821 298.912 384.288 293.445 391.031 293.445ZM400.112 362.798C400.112 357.798 396.059 353.745 391.059 353.745H391.004C386.004 353.745 381.951 357.798 381.951 362.798V362.854C381.951 367.854 386.004 371.908 391.004 371.908H391.059C396.059 371.908 400.112 367.854 400.112 362.854V362.798ZM391.004 414.045C394.275 414.045 396.927 416.697 396.927 419.969C396.927 423.24 394.275 425.893 391.004 425.893C387.732 425.893 385.08 423.24 385.08 419.969C385.08 416.697 387.732 414.045 391.004 414.045ZM393.854 477.139C393.854 475.596 392.603 474.345 391.059 474.345C389.516 474.345 388.265 475.596 388.265 477.139C388.265 478.683 389.516 479.934 391.059 479.934C392.603 479.934 393.854 478.683 393.854 477.139ZM335.178 50.009C350.601 50.009 363.119 62.5273 363.119 77.9516C363.119 62.5273 375.636 50.009 391.059 50.009C375.636 50.009 363.119 37.4907 363.119 22.0664C363.119 37.4907 350.601 50.009 335.178 50.009ZM363.119 131.992C363.119 118.3 351.998 107.179 338.308 107.179C351.998 107.179 363.119 96.0581 363.119 82.3662C363.119 96.0581 374.239 107.179 387.93 107.179C374.239 107.179 363.119 118.3 363.119 131.992ZM348 165.343C356.771 168.1 363.119 176.287 363.119 185.978C363.119 173.962 372.786 164.294 384.745 164.294C372.786 164.294 363.119 154.626 363.119 142.667C363.119 152.403 356.771 160.598 348 163.356V165.343ZM338.288 142.283C342.25 137.364 348.317 134.228 355.128 134.228C343.169 134.228 333.502 124.56 333.502 112.6C333.502 124.615 323.834 134.284 311.876 134.284C318.05 134.284 323.614 136.861 327.551 141H332C334.232 141 336.358 141.457 338.288 142.283ZM281.849 141C285.789 136.825 291.372 134.228 297.57 134.228C285.612 134.228 275.944 124.56 275.944 112.6C275.944 124.615 266.277 134.284 254.318 134.284C260.492 134.284 266.056 136.861 269.993 141H281.849ZM224.347 141C228.288 136.825 233.87 134.228 240.068 134.228C228.11 134.228 218.442 124.56 218.442 112.6C218.442 124.615 208.775 134.284 196.816 134.284C202.991 134.284 208.554 136.861 212.492 141H224.347ZM188 239.795V203.135C178.968 204.356 172.005 212.097 172.005 221.465C172.005 230.832 178.968 238.574 188 239.795ZM188 263.469C180.703 264.664 175.134 270.999 175.134 278.635C175.134 287.123 182.015 294.003 190.502 294.003C190.591 294.003 190.681 294.003 190.77 294.001C189.022 291.437 188 288.338 188 285V263.469ZM188 175.859V157C188 153.481 189.136 150.227 191.062 147.585C190.695 146.006 190.502 144.359 190.502 142.667C190.502 154.682 180.834 164.35 168.876 164.35C177.177 164.35 184.374 169.009 188 175.859ZM381.56 221.465C381.56 211.249 373.278 202.967 363.063 202.967C356.851 202.967 351.354 206.029 348 210.727V232.203C351.354 236.9 356.851 239.963 363.063 239.963C373.278 239.963 381.56 231.681 381.56 221.465ZM348 179.981V202.872C350.47 199.727 351.943 195.763 351.943 191.454V191.398C351.943 187.09 350.47 183.125 348 179.981ZM363.119 263.267C371.606 263.267 378.486 270.147 378.486 278.635C378.486 287.123 371.606 294.003 363.119 294.003C355.577 294.003 349.303 288.57 348 281.403V275.867C349.303 268.701 355.577 263.267 363.119 263.267ZM375.301 335.778C375.301 329.034 369.834 323.567 363.091 323.567C356.347 323.567 350.881 329.034 350.881 335.778C350.881 342.522 356.347 347.989 363.091 347.989C369.834 347.989 375.301 342.522 375.301 335.778ZM363.063 383.867H363.119C368.118 383.867 372.172 387.921 372.172 392.921V392.976C372.172 397.977 368.118 402.03 363.119 402.03H363.063C358.063 402.03 354.01 397.977 354.01 392.976V392.921C354.01 387.921 358.063 383.867 363.063 383.867ZM363.063 444.111C359.792 444.111 357.14 446.764 357.14 450.035C357.14 453.307 359.792 455.959 363.063 455.959H363.119C366.39 455.959 369.042 453.307 369.042 450.035C369.042 446.764 366.39 444.111 363.119 444.111H363.063ZM363.119 504.412C364.662 504.412 365.913 505.663 365.913 507.206C365.913 508.749 364.662 510 363.119 510C361.576 510 360.325 508.749 360.325 507.206C360.325 505.663 361.576 504.412 363.119 504.412ZM308.691 77.0572C322.381 77.0572 333.502 88.1783 333.502 101.87C333.502 88.1783 344.622 77.0572 358.313 77.0572C344.622 77.0572 333.502 65.936 333.502 52.2441C333.502 65.936 322.381 77.0572 308.691 77.0572ZM348 253.621C348.563 252.023 348.869 250.304 348.869 248.513C348.869 246.722 348.563 245.003 348 243.405V253.621ZM342.314 297.233C344.402 299.424 345.684 302.39 345.684 305.656C345.684 312.4 340.217 317.867 333.474 317.867C326.73 317.867 321.264 312.4 321.264 305.656C321.264 304.007 321.59 302.435 322.183 301H332C335.93 301 339.529 299.583 342.314 297.233ZM287.317 301C287.911 302.435 288.238 304.007 288.238 305.656C288.238 312.4 282.759 317.867 276 317.867C269.241 317.867 263.762 312.4 263.762 305.656C263.762 304.007 264.089 302.435 264.683 301H287.317ZM207.123 301C206.531 302.435 206.204 304.007 206.204 305.656C206.204 312.4 211.671 317.867 218.414 317.867C225.158 317.867 230.624 312.4 230.624 305.656C230.624 304.007 230.298 302.435 229.706 301H207.123ZM333.502 353.745H333.446C328.446 353.745 324.393 357.798 324.393 362.798V362.854C324.393 367.854 328.446 371.908 333.446 371.908H333.502C338.501 371.908 342.555 367.854 342.555 362.854V362.798C342.555 357.798 338.501 353.745 333.502 353.745ZM333.446 414.045H333.502C336.773 414.045 339.425 416.697 339.425 419.969C339.425 423.24 336.773 425.893 333.502 425.893H333.446C330.174 425.893 327.522 423.24 327.522 419.969C327.522 416.697 330.174 414.045 333.446 414.045ZM336.296 477.139C336.296 475.596 335.045 474.345 333.502 474.345C331.959 474.345 330.708 475.596 330.708 477.139C330.708 478.683 331.959 479.934 333.502 479.934C335.045 479.934 336.296 478.683 336.296 477.139ZM277.621 50.009C293.044 50.009 305.561 62.5273 305.561 77.9516C305.561 62.5273 318.079 50.009 333.502 50.009C318.079 50.009 305.561 37.4907 305.561 22.0664C305.561 37.4907 293.044 50.009 277.621 50.009ZM305.561 131.992C305.561 118.3 294.441 107.179 280.75 107.179C294.441 107.179 305.561 96.0581 305.561 82.3662C305.561 96.0581 316.682 107.179 330.372 107.179C316.682 107.179 305.561 118.3 305.561 131.992ZM305.533 323.567C312.277 323.567 317.743 329.034 317.743 335.778C317.743 342.522 312.277 347.989 305.533 347.989C298.79 347.989 293.323 342.522 293.323 335.778C293.323 329.034 298.79 323.567 305.533 323.567ZM305.561 383.867H305.505C300.506 383.867 296.453 387.921 296.453 392.921V392.976C296.453 397.977 300.506 402.03 305.505 402.03H305.561C310.561 402.03 314.614 397.977 314.614 392.976V392.921C314.614 387.921 310.561 383.867 305.561 383.867ZM305.505 444.111C308.777 444.111 311.429 446.764 311.429 450.035C311.429 453.307 308.777 455.959 305.505 455.959C302.234 455.959 299.582 453.307 299.582 450.035C299.582 446.764 302.234 444.111 305.505 444.111ZM308.355 507.206C308.355 505.663 307.104 504.412 305.561 504.412C304.018 504.412 302.767 505.663 302.767 507.206C302.767 508.749 304.018 510 305.561 510C307.104 510 308.355 508.749 308.355 507.206ZM275.944 101.87C275.944 88.1783 264.824 77.0572 251.133 77.0572C264.824 77.0572 275.944 65.936 275.944 52.2441C275.944 65.936 287.065 77.0572 300.755 77.0572C287.065 77.0572 275.944 88.1783 275.944 101.87ZM275.944 353.745H276C281 353.745 285.053 357.798 285.053 362.798V362.854C285.053 367.854 281 371.908 276 371.908H275.944C270.944 371.908 266.891 367.854 266.891 362.854V362.798C266.891 357.798 270.944 353.745 275.944 353.745ZM281.868 419.969C281.868 416.697 279.216 414.045 275.944 414.045C272.673 414.045 270.021 416.697 270.021 419.969C270.021 423.24 272.673 425.893 275.944 425.893C279.216 425.893 281.868 423.24 281.868 419.969ZM275.944 474.345C277.487 474.345 278.738 475.596 278.738 477.139C278.738 478.683 277.487 479.934 275.944 479.934C274.401 479.934 273.15 478.683 273.15 477.139C273.15 475.596 274.401 474.345 275.944 474.345ZM248.004 77.9516C248.004 62.5273 235.486 50.009 220.063 50.009C235.486 50.009 248.004 37.4907 248.004 22.0664C248.004 37.4907 260.521 50.009 275.944 50.009C260.521 50.009 248.004 62.5273 248.004 77.9516ZM223.192 107.179C236.883 107.179 248.004 118.3 248.004 131.992C248.004 118.3 259.124 107.179 272.815 107.179C259.124 107.179 248.004 96.0581 248.004 82.3662C248.004 96.0581 236.883 107.179 223.192 107.179ZM260.297 335.778C260.297 329.034 254.818 323.567 248.059 323.567C241.301 323.567 235.821 329.034 235.821 335.778C235.821 342.522 241.301 347.989 248.059 347.989C254.818 347.989 260.297 342.522 260.297 335.778ZM238.951 392.921C238.951 387.921 243.004 383.867 248.004 383.867H248.059C253.059 383.867 257.112 387.921 257.112 392.921V392.976C257.112 397.977 253.059 402.03 248.059 402.03H248.004C243.004 402.03 238.951 397.977 238.951 392.976V392.921ZM253.927 450.035C253.927 446.764 251.275 444.111 248.004 444.111C244.732 444.111 242.08 446.764 242.08 450.035C242.08 453.307 244.732 455.959 248.004 455.959C251.275 455.959 253.927 453.307 253.927 450.035ZM248.004 504.412C249.547 504.412 250.798 505.663 250.798 507.206C250.798 508.749 249.547 510 248.004 510C246.46 510 245.209 508.749 245.209 507.206C245.209 505.663 246.46 504.412 248.004 504.412ZM193.631 77.0572C207.322 77.0572 218.442 88.1783 218.442 101.87C218.442 88.1783 229.563 77.0572 243.254 77.0572C229.563 77.0572 218.442 65.936 218.442 52.2441C218.442 65.936 207.322 77.0572 193.631 77.0572ZM218.498 353.745H218.442C213.443 353.745 209.39 357.798 209.39 362.798V362.854C209.39 367.854 213.443 371.908 218.442 371.908H218.498C223.498 371.908 227.551 367.854 227.551 362.854V362.798C227.551 357.798 223.498 353.745 218.498 353.745ZM218.442 414.045H218.498C221.77 414.045 224.422 416.697 224.422 419.969C224.422 423.24 221.77 425.893 218.498 425.893H218.442C215.171 425.893 212.519 423.24 212.519 419.969C212.519 416.697 215.171 414.045 218.442 414.045ZM221.236 477.139C221.236 475.596 219.986 474.345 218.442 474.345C216.899 474.345 215.648 475.596 215.648 477.139C215.648 478.683 216.899 479.934 218.442 479.934C219.986 479.934 221.236 478.683 221.236 477.139ZM162.561 50.009C177.984 50.009 190.502 62.5273 190.502 77.9516C190.502 62.5273 203.019 50.009 218.442 50.009C203.019 50.009 190.502 37.4907 190.502 22.0664C190.502 37.4907 177.984 50.009 162.561 50.009ZM190.502 131.992C190.502 118.3 179.381 107.179 165.691 107.179C179.381 107.179 190.502 96.0581 190.502 82.3662C190.502 96.0581 201.622 107.179 215.313 107.179C201.622 107.179 190.502 118.3 190.502 131.992ZM202.684 335.778C202.684 329.034 197.217 323.567 190.474 323.567C183.73 323.567 178.264 329.034 178.264 335.778C178.264 342.522 183.73 347.989 190.474 347.989C197.217 347.989 202.684 342.522 202.684 335.778ZM190.502 383.867H190.558C195.557 383.867 199.61 387.921 199.61 392.921V392.976C199.61 397.977 195.557 402.03 190.558 402.03H190.502C185.502 402.03 181.449 397.977 181.449 392.976V392.921C181.449 387.921 185.502 383.867 190.502 383.867ZM190.558 444.111H190.502C187.23 444.111 184.578 446.764 184.578 450.035C184.578 453.307 187.23 455.959 190.502 455.959H190.558C193.829 455.959 196.481 453.307 196.481 450.035C196.481 446.764 193.829 444.111 190.558 444.111ZM190.502 504.412C192.045 504.412 193.296 505.663 193.296 507.206C193.296 508.749 192.045 510 190.502 510C188.959 510 187.708 508.749 187.708 507.206C187.708 505.663 188.959 504.412 190.502 504.412ZM136.129 77.0572C149.82 77.0572 160.941 88.1783 160.941 101.87C160.941 88.1783 172.061 77.0572 185.752 77.0572C172.061 77.0572 160.941 65.936 160.941 52.2441C160.941 65.936 149.82 77.0572 136.129 77.0572ZM160.941 155.911C160.941 143.952 151.273 134.284 139.315 134.284C151.273 134.284 160.941 124.615 160.941 112.6C160.941 124.56 170.608 134.228 182.567 134.228C170.608 134.228 160.941 143.896 160.941 155.911ZM160.885 172.9C171.1 172.9 179.381 181.182 179.381 191.398V191.454C179.381 201.67 171.1 209.952 160.885 209.952C150.669 209.952 142.388 201.67 142.388 191.454V191.398C142.388 181.182 150.669 172.9 160.885 172.9ZM176.308 248.513C176.308 240.025 169.428 233.145 160.941 233.145C152.453 233.145 145.573 240.025 145.573 248.513C145.573 257.001 152.453 263.881 160.941 263.881C169.428 263.881 176.308 257.001 176.308 248.513ZM160.913 293.445C167.656 293.445 173.123 298.912 173.123 305.656C173.123 312.4 167.656 317.867 160.913 317.867C154.169 317.867 148.703 312.4 148.703 305.656C148.703 298.912 154.169 293.445 160.913 293.445ZM160.941 353.745H160.885C155.885 353.745 151.832 357.798 151.832 362.798V362.854C151.832 367.854 155.885 371.908 160.885 371.908H160.941C165.94 371.908 169.993 367.854 169.993 362.854V362.798C169.993 357.798 165.94 353.745 160.941 353.745ZM160.885 414.045C164.156 414.045 166.808 416.697 166.808 419.969C166.808 423.24 164.156 425.893 160.885 425.893C157.613 425.893 154.961 423.24 154.961 419.969C154.961 416.697 157.613 414.045 160.885 414.045ZM163.735 477.139C163.735 475.596 162.484 474.345 160.941 474.345C159.397 474.345 158.147 475.596 158.147 477.139C158.147 478.683 159.397 479.934 160.941 479.934C162.484 479.934 163.735 478.683 163.735 477.139ZM105.059 50.009C120.483 50.009 133 62.5273 133 77.9516C133 62.5273 145.517 50.009 160.941 50.009C145.517 50.009 133 37.4907 133 22.0664C133 37.4907 120.483 50.009 105.059 50.009ZM133 131.992C133 118.3 121.88 107.179 108.189 107.179C121.88 107.179 133 96.0581 133 82.3662C133 96.0581 144.12 107.179 157.811 107.179C144.12 107.179 133 118.3 133 131.992ZM111.374 164.35C123.333 164.35 133 174.018 133 185.978C133 173.962 142.667 164.294 154.626 164.294C142.667 164.294 133 154.626 133 142.667C133 154.682 123.333 164.35 111.374 164.35ZM151.441 221.465C151.441 211.249 143.16 202.967 132.944 202.967C122.729 202.967 114.447 211.249 114.447 221.465C114.447 231.681 122.729 239.963 132.944 239.963C143.16 239.963 151.441 231.681 151.441 221.465ZM133 263.267C141.487 263.267 148.367 270.147 148.367 278.635C148.367 287.123 141.487 294.003 133 294.003C124.513 294.003 117.633 287.123 117.633 278.635C117.633 270.147 124.513 263.267 133 263.267ZM145.238 335.778C145.238 329.034 139.759 323.567 133 323.567C126.241 323.567 120.762 329.034 120.762 335.778C120.762 342.522 126.241 347.989 133 347.989C139.759 347.989 145.238 342.522 145.238 335.778ZM132.944 383.867H133C138 383.867 142.053 387.921 142.053 392.921V392.976C142.053 397.977 138 402.03 133 402.03H132.944C127.944 402.03 123.891 397.977 123.891 392.976V392.921C123.891 387.921 127.944 383.867 132.944 383.867ZM138.868 450.035C138.868 446.764 136.216 444.111 132.944 444.111C129.673 444.111 127.021 446.764 127.021 450.035C127.021 453.307 129.673 455.959 132.944 455.959C136.216 455.959 138.868 453.307 138.868 450.035ZM133 504.412C134.543 504.412 135.794 505.663 135.794 507.206C135.794 508.749 134.543 510 133 510C131.457 510 130.206 508.749 130.206 507.206C130.206 505.663 131.457 504.412 133 504.412ZM78.5717 77.0572C92.2626 77.0572 103.383 88.1783 103.383 101.87C103.383 88.1783 114.503 77.0572 128.194 77.0572C114.503 77.0572 103.383 65.936 103.383 52.2441C103.383 65.936 92.2626 77.0572 78.5717 77.0572ZM103.383 155.911C103.383 143.952 93.7155 134.284 81.757 134.284C93.7155 134.284 103.383 124.615 103.383 112.6C103.383 124.56 113.05 134.228 125.009 134.228C113.05 134.228 103.383 143.896 103.383 155.911ZM103.383 172.9H103.439C113.654 172.9 121.936 181.182 121.936 191.398V191.454C121.936 201.67 113.654 209.952 103.439 209.952H103.383C93.1675 209.952 84.8863 201.67 84.8863 191.454V191.398C84.8863 181.182 93.1675 172.9 103.383 172.9ZM118.75 248.513C118.75 240.025 111.87 233.145 103.383 233.145C94.8958 233.145 88.0156 240.025 88.0156 248.513C88.0156 257.001 94.8958 263.881 103.383 263.881C111.87 263.881 118.75 257.001 118.75 248.513ZM103.411 293.445C110.154 293.445 115.621 298.912 115.621 305.656C115.621 312.4 110.154 317.867 103.411 317.867C96.6675 317.867 91.2009 312.4 91.2009 305.656C91.2009 298.912 96.6675 293.445 103.411 293.445ZM103.439 353.745H103.383C98.3833 353.745 94.3302 357.798 94.3302 362.798V362.854C94.3302 367.854 98.3833 371.908 103.383 371.908H103.439C108.439 371.908 112.492 367.854 112.492 362.854V362.798C112.492 357.798 108.439 353.745 103.439 353.745ZM103.383 414.045C106.654 414.045 109.306 416.697 109.306 419.969C109.306 423.24 106.654 425.893 103.383 425.893C100.112 425.893 97.4595 423.24 97.4595 419.969C97.4595 416.697 100.112 414.045 103.383 414.045ZM106.177 477.139C106.177 475.596 104.926 474.345 103.383 474.345C101.84 474.345 100.589 475.596 100.589 477.139C100.589 478.683 101.84 479.934 103.383 479.934C104.926 479.934 106.177 478.683 106.177 477.139ZM47.5018 50.009C62.925 50.009 75.4424 62.5273 75.4424 77.9516C75.4424 62.5273 87.9598 50.009 103.383 50.009C87.9598 50.009 75.4424 37.4907 75.4424 22.0664C75.4424 37.4907 62.925 50.009 47.5018 50.009ZM75.4424 131.992C75.4424 118.3 64.322 107.179 50.6311 107.179C64.322 107.179 75.4424 96.0581 75.4424 82.3662C75.4424 96.0581 86.5627 107.179 100.254 107.179C86.5627 107.179 75.4424 118.3 75.4424 131.992ZM53.8163 164.35C65.7749 164.35 75.4424 174.018 75.4424 185.978C75.4424 173.962 85.1098 164.294 97.0684 164.294C85.1098 164.294 75.4424 154.626 75.4424 142.667C75.4424 154.682 65.7749 164.35 53.8163 164.35ZM93.939 221.465C93.939 211.249 85.6578 202.967 75.4424 202.967C65.2269 202.967 56.9457 211.249 56.9457 221.465C56.9457 231.681 65.2269 239.963 75.4424 239.963C85.6578 239.963 93.939 231.681 93.939 221.465ZM75.4423 263.267C83.9295 263.267 90.8097 270.147 90.8097 278.635C90.8097 287.123 83.9295 294.003 75.4423 294.003C66.9552 294.003 60.075 287.123 60.075 278.635C60.075 270.147 66.9552 263.267 75.4423 263.267ZM87.6803 335.778C87.6803 329.034 82.2137 323.567 75.4703 323.567C68.7269 323.567 63.2603 329.034 63.2603 335.778C63.2603 342.522 68.7269 347.989 75.4703 347.989C82.2137 347.989 87.6803 342.522 87.6803 335.778ZM75.4423 383.867H75.4982C80.4979 383.867 84.551 387.921 84.551 392.921V392.976C84.551 397.977 80.4979 402.03 75.4982 402.03H75.4423C70.4426 402.03 66.3896 397.977 66.3896 392.976V392.921C66.3896 387.921 70.4426 383.867 75.4423 383.867ZM81.3657 450.035C81.3657 446.764 78.7137 444.111 75.4423 444.111C72.1709 444.111 69.5189 446.764 69.5189 450.035C69.5189 453.307 72.1709 455.959 75.4423 455.959C78.7137 455.959 81.3657 453.307 81.3657 450.035ZM75.4424 504.412C76.9855 504.412 78.2364 505.663 78.2364 507.206C78.2364 508.749 76.9855 510 75.4424 510C73.8993 510 72.6483 508.749 72.6483 507.206C72.6483 505.663 73.8993 504.412 75.4424 504.412ZM21.0699 77.0572C34.7608 77.0572 45.8812 88.1783 45.8812 101.87C45.8812 88.1783 57.0016 77.0572 70.6925 77.0572C57.0016 77.0572 45.8812 65.936 45.8812 52.2441C45.8812 65.936 34.7608 77.0572 21.0699 77.0572ZM45.8812 155.911C45.8812 143.952 36.2138 134.284 24.2552 134.284C36.2138 134.284 45.8812 124.615 45.8812 112.6C45.8812 124.56 55.5487 134.228 67.5072 134.228C55.5487 134.228 45.8812 143.896 45.8812 155.911ZM45.8812 172.9C56.0966 172.9 64.3779 181.182 64.3779 191.398V191.454C64.3779 201.67 56.0966 209.952 45.8812 209.952C35.6658 209.952 27.3845 201.67 27.3845 191.454V191.398C27.3845 181.182 35.6658 172.9 45.8812 172.9ZM61.2486 248.513C61.2486 240.025 54.3684 233.145 45.8812 233.145C37.3941 233.145 30.5139 240.025 30.5139 248.513C30.5139 257.001 37.3941 263.881 45.8812 263.881C54.3684 263.881 61.2486 257.001 61.2486 248.513ZM45.8533 293.445C52.5967 293.445 58.0633 298.912 58.0633 305.656C58.0633 312.4 52.5967 317.867 45.8533 317.867C39.1099 317.867 33.6432 312.4 33.6432 305.656C33.6432 298.912 39.1099 293.445 45.8533 293.445ZM45.9371 353.745H45.8812C40.8815 353.745 36.8284 357.798 36.8284 362.798V362.854C36.8284 367.854 40.8815 371.908 45.8812 371.908H45.9371C50.9368 371.908 54.9898 367.854 54.9898 362.854V362.798C54.9898 357.798 50.9368 353.745 45.9371 353.745ZM45.8812 414.045C49.1526 414.045 51.8046 416.697 51.8046 419.969C51.8046 423.24 49.1526 425.893 45.8812 425.893C42.6098 425.893 39.9578 423.24 39.9578 419.969C39.9578 416.697 42.6098 414.045 45.8812 414.045ZM48.6753 477.139C48.6753 475.596 47.4243 474.345 45.8812 474.345C44.3381 474.345 43.0872 475.596 43.0872 477.139C43.0872 478.683 44.3381 479.934 45.8812 479.934C47.4243 479.934 48.6753 478.683 48.6753 477.139ZM-10 50.009C5.42321 50.009 17.9406 62.5273 17.9406 77.9516C17.9406 62.5273 30.458 50.009 45.8812 50.009C30.458 50.009 17.9406 37.4907 17.9406 22.0664C17.9406 37.4907 5.42321 50.009 -10 50.009ZM17.9406 131.992C17.9406 118.3 6.82023 107.179 -6.87067 107.179C6.82023 107.179 17.9406 96.0581 17.9406 82.3662C17.9406 96.0581 29.0609 107.179 42.7518 107.179C29.0609 107.179 17.9406 118.3 17.9406 131.992ZM-3.68542 164.35C8.27315 164.35 17.9406 174.018 17.9406 185.978C17.9406 173.962 27.608 164.294 39.5666 164.294C27.608 164.294 17.9406 154.626 17.9406 142.667C17.9406 154.682 8.27315 164.35 -3.68542 164.35ZM36.4373 221.465C36.4373 211.249 28.1561 202.967 17.9406 202.967C7.72518 202.967 -0.556061 211.249 -0.556061 221.465C-0.556061 231.681 7.72518 239.963 17.9406 239.963C28.1561 239.963 36.4373 231.681 36.4373 221.465ZM17.9406 263.267C26.4277 263.267 33.3079 270.147 33.3079 278.635C33.3079 287.123 26.4277 294.003 17.9406 294.003C9.45346 294.003 2.57327 287.123 2.57327 278.635C2.57327 270.147 9.45346 263.267 17.9406 263.267ZM30.1786 335.778C30.1786 329.034 24.6994 323.567 17.9406 323.567C11.1817 323.567 5.70261 329.034 5.70261 335.778C5.70261 342.522 11.1817 347.989 17.9406 347.989C24.6994 347.989 30.1786 342.522 30.1786 335.778ZM17.9406 383.867H17.9965C22.9962 383.867 27.0492 387.921 27.0492 392.921V392.976C27.0492 397.977 22.9962 402.03 17.9965 402.03H17.9406C12.9409 402.03 8.88785 397.977 8.88785 392.976V392.921C8.88785 387.921 12.9409 383.867 17.9406 383.867ZM23.864 450.035C23.864 446.764 21.212 444.111 17.9406 444.111C14.6692 444.111 12.0172 446.764 12.0172 450.035C12.0172 453.307 14.6692 455.959 17.9406 455.959C21.212 455.959 23.864 453.307 23.864 450.035ZM17.9406 504.412C19.4837 504.412 20.7347 505.663 20.7347 507.206C20.7347 508.749 19.4837 510 17.9406 510C16.3975 510 15.1465 508.749 15.1465 507.206C15.1465 505.663 16.3975 504.412 17.9406 504.412Z" fill="white" fill-opacity="0.05"/>
<g style="mix-blend-mode:overlay" clip-path="url(#clip1_609_5114)">
<path d="M64.3516 238C42.9642 238 23.9915 233.105 7.43357 223.314C-8.89443 213.524 -21.7728 199.293 -31.2017 180.623C-40.4006 161.953 -45 139.412 -45 113C-45 86.5883 -40.4006 64.0474 -31.2017 45.377C-21.7728 26.7067 -8.89443 12.4763 7.43357 2.68579C23.9915 -7.10474 42.9642 -12 64.3516 -12C85.739 -12 104.597 -7.10474 120.925 2.68579C137.483 12.4763 150.361 26.7067 159.56 45.377C168.989 64.0474 173.703 86.5883 173.703 113C173.703 139.412 168.989 161.953 159.56 180.623C150.361 199.293 137.483 213.524 120.925 223.314C104.597 233.105 85.739 238 64.3516 238ZM64.3516 173.451C69.6409 173.451 74.3554 171.629 78.4949 167.986C82.6343 164.343 85.854 158.082 88.1537 149.202C90.6834 140.322 91.9482 128.255 91.9482 113C91.9482 97.5173 90.6834 85.4499 88.1537 76.7978C85.854 67.918 82.6343 61.6566 78.4949 58.0136C74.3554 54.3707 69.6409 52.5492 64.3516 52.5492C59.0622 52.5492 54.3478 54.3707 50.2083 58.0136C46.0688 61.6566 42.7342 67.918 40.2046 76.7978C37.9048 85.4499 36.755 97.5173 36.755 113C36.755 128.255 37.9048 140.322 40.2046 149.202C42.7342 158.082 46.0688 164.343 50.2083 167.986C54.3478 171.629 59.0622 173.451 64.3516 173.451Z" fill="#D9D9D9"/>
<path d="M223.59 141V54.2568H182.195V-6.53553H305V141H223.59Z" fill="#D9D9D9"/>
</g>
<path d="M103.805 303.547C103.805 304.442 103.715 305.451 103.536 306.574C103.357 307.681 103.097 308.804 102.755 309.943C102.429 311.083 102.031 312.189 101.559 313.264C101.103 314.338 100.582 315.298 99.9961 316.145C99.4264 316.975 98.8079 317.642 98.1406 318.146C97.4896 318.651 96.806 318.903 96.0898 318.903C95.6667 318.903 95.2516 318.651 94.8447 318.146C94.4541 317.658 94.0716 317.015 93.6973 316.218C93.3392 315.42 93.0055 314.533 92.6963 313.557C92.387 312.58 92.1022 311.612 91.8418 310.651C91.5977 311.547 91.3291 312.482 91.0361 313.459C90.7432 314.436 90.3851 315.331 89.9619 316.145C89.5387 316.942 89.0423 317.601 88.4727 318.122C87.903 318.643 87.2275 318.903 86.4463 318.903C85.9417 318.903 85.4779 318.667 85.0547 318.195C84.6478 317.723 84.2734 317.129 83.9316 316.413C83.6061 315.681 83.305 314.875 83.0283 313.996C82.7679 313.101 82.54 312.238 82.3447 311.408C82.1657 310.562 82.0111 309.797 81.8809 309.113C81.7507 308.43 81.653 307.925 81.5879 307.6C81.5716 307.551 81.5472 307.429 81.5146 307.233C81.4821 307.038 81.4414 306.835 81.3926 306.623C81.3438 306.411 81.2786 306.224 81.1973 306.062C81.1322 305.882 81.0671 305.793 81.002 305.793C80.7253 305.793 80.3997 305.882 80.0254 306.062C79.6673 306.224 79.3743 306.371 79.1465 306.501L79 306.257C79.2279 306.013 79.5046 305.76 79.8301 305.5C80.1719 305.223 80.5299 304.971 80.9043 304.743C81.2949 304.515 81.6855 304.328 82.0762 304.182C82.4831 304.035 82.8574 303.962 83.1992 303.962C83.4922 303.962 83.7526 304.092 83.9805 304.353C84.2246 304.597 84.4281 304.914 84.5908 305.305C84.7536 305.695 84.8919 306.135 85.0059 306.623C85.1361 307.095 85.2337 307.567 85.2988 308.039C85.3802 308.495 85.4372 308.91 85.4697 309.284C85.5186 309.659 85.5592 309.943 85.5918 310.139C85.6081 310.269 85.6488 310.537 85.7139 310.944C85.779 311.335 85.8604 311.799 85.958 312.336C86.0557 312.857 86.1615 313.41 86.2754 313.996C86.4056 314.566 86.5439 315.095 86.6904 315.583C86.8369 316.055 86.9834 316.454 87.1299 316.779C87.2926 317.089 87.4473 317.243 87.5938 317.243C88.0495 317.243 88.4727 316.958 88.8633 316.389C89.2539 315.803 89.6038 315.078 89.9131 314.216C90.2386 313.353 90.5234 312.434 90.7676 311.457C91.0117 310.48 91.207 309.585 91.3535 308.771C91.1908 308.12 91.0524 307.543 90.9385 307.038C90.8245 306.517 90.7269 306.102 90.6455 305.793C90.613 305.728 90.5967 305.614 90.5967 305.451C90.5967 305.223 90.6781 305.012 90.8408 304.816C91.0036 304.621 91.207 304.45 91.4512 304.304C91.6953 304.157 91.9476 304.043 92.208 303.962C92.4684 303.881 92.6963 303.84 92.8916 303.84C93.2171 303.84 93.4857 303.994 93.6973 304.304C93.9089 304.597 94.0798 304.947 94.21 305.354C94.3402 305.76 94.4378 306.175 94.5029 306.599C94.5843 307.006 94.6494 307.323 94.6982 307.551C94.7145 307.665 94.7633 307.982 94.8447 308.503C94.9424 309.024 95.0645 309.642 95.2109 310.358C95.3574 311.075 95.512 311.84 95.6748 312.653C95.8538 313.451 96.0329 314.191 96.2119 314.875C96.4072 315.559 96.5944 316.128 96.7734 316.584C96.9525 317.023 97.1152 317.243 97.2617 317.243C97.7012 317.243 98.1081 317.097 98.4824 316.804C98.8568 316.494 99.1904 316.096 99.4834 315.607C99.7926 315.103 100.053 314.533 100.265 313.898C100.493 313.247 100.68 312.572 100.826 311.872C100.989 311.172 101.103 310.48 101.168 309.797C101.249 309.097 101.29 308.446 101.29 307.844C101.29 307.339 101.257 306.794 101.192 306.208C101.127 305.606 101.021 305.012 100.875 304.426C100.729 303.84 100.533 303.278 100.289 302.741C100.061 302.188 99.7845 301.716 99.459 301.325C99.1335 300.918 98.7591 300.609 98.3359 300.397C97.9128 300.186 97.4326 300.113 96.8955 300.178L96.8467 299.958C97.2699 299.746 97.7174 299.584 98.1895 299.47C98.6615 299.356 99.1497 299.299 99.6543 299.299C101.038 299.299 102.071 299.681 102.755 300.446C103.455 301.195 103.805 302.229 103.805 303.547ZM119.942 310.798C119.942 311.937 119.755 312.995 119.381 313.972C119.007 314.948 118.478 315.795 117.794 316.511C117.11 317.227 116.288 317.788 115.328 318.195C114.384 318.602 113.334 318.806 112.179 318.806C111.153 318.806 110.226 318.61 109.396 318.22C108.582 317.845 107.882 317.333 107.296 316.682C106.71 316.031 106.262 315.274 105.953 314.411C105.644 313.532 105.489 312.596 105.489 311.604C105.489 310.773 105.603 309.984 105.831 309.235C106.075 308.487 106.409 307.795 106.832 307.16C107.255 306.509 107.76 305.915 108.346 305.378C108.932 304.825 109.566 304.328 110.25 303.889L110.543 304.108C109.859 304.906 109.322 305.785 108.932 306.745C108.541 307.705 108.346 308.723 108.346 309.797C108.346 310.578 108.46 311.376 108.688 312.189C108.932 312.987 109.282 313.719 109.737 314.387C110.193 315.054 110.763 315.599 111.446 316.022C112.13 316.446 112.911 316.657 113.79 316.657C114.343 316.657 114.864 316.543 115.353 316.315C115.841 316.088 116.264 315.778 116.622 315.388C116.996 314.997 117.289 314.558 117.501 314.069C117.729 313.565 117.843 313.044 117.843 312.507C117.843 311.986 117.761 311.481 117.599 310.993C117.452 310.489 117.241 310.025 116.964 309.602C116.687 309.162 116.354 308.771 115.963 308.43C115.572 308.072 115.149 307.779 114.693 307.551C114.433 307.421 114.181 307.323 113.937 307.258C113.709 307.193 113.456 307.119 113.18 307.038C113.066 307.022 112.944 306.997 112.813 306.965C112.683 306.916 112.561 306.867 112.447 306.818C112.333 306.753 112.236 306.672 112.154 306.574C112.073 306.477 112.032 306.354 112.032 306.208C112.032 305.915 112.138 305.646 112.35 305.402C112.561 305.158 112.813 304.947 113.106 304.768C113.399 304.572 113.709 304.426 114.034 304.328C114.36 304.214 114.645 304.157 114.889 304.157C115.719 304.157 116.451 304.369 117.086 304.792C117.721 305.215 118.25 305.752 118.673 306.403C119.096 307.054 119.413 307.771 119.625 308.552C119.837 309.333 119.942 310.082 119.942 310.798ZM140.816 314.509C140.523 315.16 140.149 315.746 139.693 316.267C139.254 316.787 138.774 317.235 138.253 317.609C137.732 317.967 137.195 318.244 136.642 318.439C136.088 318.651 135.559 318.757 135.055 318.757C134.111 318.757 133.313 318.594 132.662 318.269C132.011 317.943 131.482 317.504 131.075 316.95C130.668 316.397 130.375 315.746 130.196 314.997C130.017 314.248 129.928 313.451 129.928 312.604C129.928 311.953 129.977 311.278 130.074 310.578C130.172 309.878 130.31 309.203 130.489 308.552C130.522 308.454 130.554 308.34 130.587 308.21C130.619 308.063 130.636 307.941 130.636 307.844C130.636 307.762 130.587 307.697 130.489 307.648C130.213 307.551 129.92 307.461 129.61 307.38C129.301 307.282 128.992 307.176 128.683 307.062C128.39 306.949 128.105 306.818 127.828 306.672C127.568 306.525 127.34 306.338 127.145 306.11C127.128 307.087 126.965 308.08 126.656 309.089C126.347 310.082 125.932 311.042 125.411 311.97C124.907 312.881 124.312 313.736 123.629 314.533C122.945 315.331 122.221 316.022 121.456 316.608L121.212 316.364C121.684 315.843 122.115 315.225 122.506 314.509C122.896 313.793 123.23 313.044 123.507 312.263C123.784 311.481 123.995 310.692 124.142 309.895C124.304 309.097 124.386 308.348 124.386 307.648C124.386 307.29 124.353 306.957 124.288 306.647C124.223 306.322 124.15 306.013 124.068 305.72C124.003 305.427 123.938 305.15 123.873 304.89C123.808 304.613 123.775 304.336 123.775 304.06C123.775 303.604 123.922 303.246 124.215 302.985C124.508 302.725 124.882 302.595 125.338 302.595C125.582 302.595 125.769 302.668 125.899 302.814C126.03 302.945 126.144 303.107 126.241 303.303C126.339 303.498 126.453 303.701 126.583 303.913C126.713 304.125 126.9 304.304 127.145 304.45C127.454 304.629 127.844 304.759 128.316 304.841C128.788 304.922 129.285 304.995 129.806 305.061C130.326 305.126 130.847 305.191 131.368 305.256C131.889 305.321 132.353 305.435 132.76 305.598C133.183 305.744 133.525 305.956 133.785 306.232C134.046 306.493 134.176 306.851 134.176 307.307C134.176 307.535 134.151 307.762 134.103 307.99C134.07 308.202 134.013 308.405 133.932 308.601C133.736 309.284 133.565 309.984 133.419 310.7C133.289 311.4 133.224 312.1 133.224 312.8C133.224 313.402 133.264 313.955 133.346 314.46C133.443 314.948 133.614 315.371 133.858 315.729C134.103 316.088 134.428 316.364 134.835 316.56C135.242 316.755 135.763 316.853 136.397 316.853C137.309 316.853 138.106 316.633 138.79 316.193C139.474 315.738 140.076 315.144 140.597 314.411L140.816 314.509ZM158.834 314.265C158.508 314.899 158.134 315.51 157.711 316.096C157.288 316.682 156.799 317.202 156.246 317.658C155.693 318.114 155.074 318.472 154.391 318.732C153.707 319.009 152.934 319.147 152.071 319.147C150.509 319.147 149.223 318.789 148.214 318.073C147.221 317.357 146.383 316.356 145.699 315.07C145.504 315.152 145.309 315.225 145.113 315.29C144.934 315.339 144.755 315.396 144.576 315.461C144.544 315.738 144.511 315.99 144.479 316.218C144.446 316.446 144.413 316.657 144.381 316.853C144.348 317.064 144.308 317.292 144.259 317.536C144.21 317.78 144.129 318.008 144.015 318.22C143.901 318.431 143.746 318.602 143.551 318.732C143.355 318.879 143.087 318.952 142.745 318.952C142.257 318.952 141.915 318.798 141.72 318.488C141.524 318.195 141.37 317.87 141.256 317.512C141.012 316.73 140.784 315.786 140.572 314.68C140.377 313.573 140.206 312.434 140.06 311.262C139.913 310.074 139.799 308.902 139.718 307.746C139.636 306.59 139.596 305.565 139.596 304.67C139.596 303.596 139.628 302.465 139.693 301.276C139.758 300.072 139.872 298.859 140.035 297.639C140.198 296.418 140.418 295.214 140.694 294.025C140.987 292.821 141.354 291.674 141.793 290.583C142.232 289.493 142.753 288.483 143.355 287.556C143.974 286.612 144.698 285.798 145.528 285.114C145.903 284.805 146.326 284.536 146.798 284.309C147.286 284.081 147.766 283.967 148.238 283.967C148.434 283.967 148.653 284.016 148.897 284.113C149.158 284.195 149.288 284.357 149.288 284.602C149.288 284.732 149.223 284.886 149.093 285.065C146.765 288.272 145.081 291.682 144.039 295.295C142.997 298.892 142.477 302.709 142.477 306.745C142.477 308.405 142.55 310.008 142.696 311.555C142.859 313.085 143.071 314.688 143.331 316.364C143.396 315.518 143.486 314.615 143.6 313.654C143.73 312.678 143.901 311.717 144.112 310.773C144.34 309.829 144.625 308.926 144.967 308.063C145.309 307.185 145.732 306.411 146.236 305.744C146.741 305.077 147.327 304.548 147.994 304.157C148.678 303.75 149.475 303.547 150.387 303.547C151.347 303.547 152.145 303.832 152.779 304.401C153.414 304.955 153.731 305.72 153.731 306.696C153.731 307.25 153.642 307.795 153.463 308.332C153.284 308.869 153.04 309.382 152.73 309.87C152.438 310.342 152.096 310.79 151.705 311.213C151.331 311.636 150.94 312.002 150.533 312.312C149.947 312.767 149.304 313.207 148.604 313.63C148.865 314.134 149.158 314.615 149.483 315.07C149.809 315.51 150.167 315.9 150.558 316.242C150.948 316.568 151.38 316.828 151.852 317.023C152.34 317.219 152.877 317.316 153.463 317.316C153.984 317.316 154.488 317.235 154.977 317.072C155.481 316.893 155.953 316.665 156.393 316.389C156.832 316.096 157.239 315.762 157.613 315.388C158.004 314.997 158.354 314.59 158.663 314.167L158.834 314.265ZM149.19 306.623C148.377 306.623 147.709 306.883 147.188 307.404C146.668 307.909 146.236 308.552 145.895 309.333C145.569 310.098 145.317 310.944 145.138 311.872C144.959 312.8 144.812 313.679 144.698 314.509C145.479 314.2 146.22 313.825 146.92 313.386C147.636 312.93 148.255 312.434 148.775 311.896C149.296 311.359 149.711 310.79 150.021 310.188C150.33 309.569 150.484 308.926 150.484 308.259C150.484 307.836 150.37 307.461 150.143 307.136C149.931 306.794 149.614 306.623 149.19 306.623Z" fill="white"/>
<path d="M55.25 349L71.35 314H73.9L90 349H87.25L72.05 315.6H73.15L58 349H55.25ZM61.15 339.15L62 337H82.95L83.8 339.15H61.15ZM108.304 322.7C110.437 322.7 112.287 323.117 113.854 323.95C115.454 324.75 116.687 325.983 117.554 327.65C118.454 329.283 118.904 331.317 118.904 333.75V349H116.404V333.95C116.404 331.017 115.654 328.783 114.154 327.25C112.687 325.717 110.621 324.95 107.954 324.95C105.921 324.95 104.154 325.367 102.654 326.2C101.154 327.033 100.004 328.2 99.2039 329.7C98.4372 331.2 98.0539 333 98.0539 335.1V349H95.5539V322.9H97.9539V330.15L97.6039 329.35C98.4039 327.283 99.7206 325.667 101.554 324.5C103.387 323.3 105.637 322.7 108.304 322.7ZM141.946 322.7C144.08 322.7 145.93 323.117 147.496 323.95C149.096 324.75 150.33 325.983 151.196 327.65C152.096 329.283 152.546 331.317 152.546 333.75V349H150.046V333.95C150.046 331.017 149.296 328.783 147.796 327.25C146.33 325.717 144.263 324.95 141.596 324.95C139.563 324.95 137.796 325.367 136.296 326.2C134.796 327.033 133.646 328.2 132.846 329.7C132.08 331.2 131.696 333 131.696 335.1V349H129.196V322.9H131.596V330.15L131.246 329.35C132.046 327.283 133.363 325.667 135.196 324.5C137.03 323.3 139.28 322.7 141.946 322.7ZM162.839 349V322.9H165.339V349H162.839ZM164.089 316.55C163.522 316.55 163.039 316.35 162.639 315.95C162.239 315.55 162.039 315.083 162.039 314.55C162.039 313.983 162.239 313.5 162.639 313.1C163.039 312.7 163.522 312.5 164.089 312.5C164.689 312.5 165.172 312.7 165.539 313.1C165.939 313.467 166.139 313.933 166.139 314.5C166.139 315.067 165.939 315.55 165.539 315.95C165.172 316.35 164.689 316.55 164.089 316.55ZM182.476 349L170.726 322.9H173.376L184.376 347.6H183.176L194.276 322.9H196.826L185.026 349H182.476ZM212.16 349.2C209.526 349.2 207.193 348.633 205.16 347.5C203.16 346.367 201.576 344.8 200.41 342.8C199.276 340.8 198.71 338.517 198.71 335.95C198.71 333.35 199.243 331.067 200.31 329.1C201.41 327.1 202.91 325.533 204.81 324.4C206.71 323.267 208.843 322.7 211.21 322.7C213.576 322.7 215.693 323.25 217.56 324.35C219.46 325.45 220.943 327 222.01 329C223.11 330.967 223.66 333.25 223.66 335.85C223.66 335.95 223.643 336.067 223.61 336.2C223.61 336.3 223.61 336.417 223.61 336.55H200.56V334.6H222.26L221.26 335.55C221.293 333.517 220.86 331.7 219.96 330.1C219.093 328.467 217.91 327.2 216.41 326.3C214.91 325.367 213.176 324.9 211.21 324.9C209.276 324.9 207.543 325.367 206.01 326.3C204.51 327.2 203.326 328.467 202.46 330.1C201.593 331.7 201.16 333.533 201.16 335.6V336.05C201.16 338.183 201.626 340.083 202.56 341.75C203.526 343.383 204.843 344.667 206.51 345.6C208.176 346.5 210.076 346.95 212.21 346.95C213.876 346.95 215.426 346.65 216.86 346.05C218.326 345.45 219.56 344.533 220.56 343.3L222.01 344.95C220.876 346.35 219.443 347.417 217.71 348.15C216.01 348.85 214.16 349.2 212.16 349.2ZM231.394 349V322.9H233.794V330.05L233.544 329.25C234.277 327.15 235.51 325.533 237.244 324.4C238.977 323.267 241.144 322.7 243.744 322.7V325.15C243.644 325.15 243.544 325.15 243.444 325.15C243.344 325.117 243.244 325.1 243.144 325.1C240.244 325.1 237.977 326.017 236.344 327.85C234.71 329.65 233.894 332.167 233.894 335.4V349H231.394ZM257.525 349.2C255.358 349.2 253.325 348.883 251.425 348.25C249.558 347.617 248.108 346.817 247.075 345.85L248.225 343.85C249.225 344.717 250.558 345.467 252.225 346.1C253.892 346.7 255.692 347 257.625 347C260.358 347 262.325 346.55 263.525 345.65C264.725 344.75 265.325 343.567 265.325 342.1C265.325 341.033 265.008 340.2 264.375 339.6C263.775 338.967 262.958 338.483 261.925 338.15C260.892 337.817 259.758 337.55 258.525 337.35C257.292 337.117 256.058 336.867 254.825 336.6C253.592 336.333 252.458 335.95 251.425 335.45C250.392 334.95 249.558 334.267 248.925 333.4C248.325 332.5 248.025 331.317 248.025 329.85C248.025 328.517 248.392 327.317 249.125 326.25C249.858 325.183 250.958 324.333 252.425 323.7C253.892 323.033 255.725 322.7 257.925 322.7C259.558 322.7 261.192 322.933 262.825 323.4C264.492 323.867 265.842 324.483 266.875 325.25L265.725 327.25C264.625 326.417 263.392 325.817 262.025 325.45C260.658 325.083 259.275 324.9 257.875 324.9C255.342 324.9 253.475 325.367 252.275 326.3C251.108 327.233 250.525 328.4 250.525 329.8C250.525 330.9 250.825 331.783 251.425 332.45C252.058 333.083 252.892 333.583 253.925 333.95C254.958 334.283 256.092 334.567 257.325 334.8C258.558 335 259.792 335.233 261.025 335.5C262.258 335.767 263.392 336.15 264.425 336.65C265.458 337.117 266.275 337.783 266.875 338.65C267.508 339.483 267.825 340.617 267.825 342.05C267.825 343.483 267.425 344.733 266.625 345.8C265.858 346.867 264.708 347.7 263.175 348.3C261.642 348.9 259.758 349.2 257.525 349.2ZM291.252 349V343.05L291.152 342.15V332.35C291.152 329.917 290.485 328.067 289.152 326.8C287.852 325.533 285.935 324.9 283.402 324.9C281.602 324.9 279.919 325.217 278.352 325.85C276.819 326.45 275.502 327.233 274.402 328.2L273.152 326.4C274.452 325.233 276.019 324.333 277.852 323.7C279.685 323.033 281.602 322.7 283.602 322.7C286.835 322.7 289.319 323.517 291.052 325.15C292.785 326.783 293.652 329.217 293.652 332.45V349H291.252ZM281.852 349.2C279.919 349.2 278.235 348.9 276.802 348.3C275.402 347.667 274.319 346.783 273.552 345.65C272.819 344.517 272.452 343.217 272.452 341.75C272.452 340.417 272.752 339.217 273.352 338.15C273.985 337.05 275.019 336.167 276.452 335.5C277.885 334.8 279.802 334.45 282.202 334.45H291.802V336.4H282.252C279.552 336.4 277.652 336.9 276.552 337.9C275.485 338.9 274.952 340.15 274.952 341.65C274.952 343.317 275.585 344.65 276.852 345.65C278.119 346.65 279.902 347.15 282.202 347.15C284.402 347.15 286.252 346.65 287.752 345.65C289.285 344.65 290.419 343.2 291.152 341.3L291.852 343C291.152 344.9 289.952 346.417 288.252 347.55C286.585 348.65 284.452 349.2 281.852 349.2ZM303.952 349V322.9H306.352V330.05L306.102 329.25C306.836 327.15 308.069 325.533 309.802 324.4C311.536 323.267 313.702 322.7 316.302 322.7V325.15C316.202 325.15 316.102 325.15 316.002 325.15C315.902 325.117 315.802 325.1 315.702 325.1C312.802 325.1 310.536 326.017 308.902 327.85C307.269 329.65 306.452 332.167 306.452 335.4V349H303.952ZM323.763 358.9C322.563 358.9 321.429 358.7 320.363 358.3C319.329 357.9 318.446 357.317 317.712 356.55L318.962 354.65C319.629 355.35 320.346 355.867 321.113 356.2C321.913 356.533 322.813 356.7 323.813 356.7C325.013 356.7 326.063 356.367 326.963 355.7C327.896 355.033 328.763 353.817 329.563 352.05L331.363 348.05L331.713 347.6L342.763 322.9H345.313L331.912 352.55C331.213 354.15 330.446 355.4 329.613 356.3C328.813 357.233 327.929 357.9 326.963 358.3C325.996 358.7 324.929 358.9 323.763 358.9ZM331.313 349.65L319.213 322.9H321.863L332.863 347.45L331.313 349.65Z" fill="white"/>
<path d="M37.2172 23.3711H34.6832V32.6966H37.2172V23.3711Z" fill="url(#paint0_linear_609_5114)"/>
<path d="M48.8423 28.0339C48.8423 30.9634 46.9419 32.8353 44.4888 32.8353C43.4005 32.8353 42.507 32.4711 41.8572 31.7086V36.0594H39.3232V23.3711H41.7435V24.4459C42.3771 23.6312 43.3192 23.2324 44.4888 23.2324C46.9419 23.2324 48.8423 25.1044 48.8423 28.0339ZM46.2759 28.0339C46.2759 26.422 45.3175 25.4513 44.0503 25.4513C42.7835 25.4513 41.8248 26.422 41.8248 28.0339C41.8248 29.6457 42.7831 30.6165 44.0503 30.6165C45.3175 30.6165 46.2759 29.6457 46.2759 28.0339Z" fill="white"/>
<path d="M59.2161 27.3577V32.6966H56.6821V27.7737C56.6821 26.2656 56.0323 25.5722 54.9116 25.5722C53.6933 25.5722 52.816 26.3697 52.816 28.0857V32.6966H50.282V19.835H52.816V24.3418C53.4982 23.6138 54.4727 23.2323 55.5938 23.2323C57.6569 23.2323 59.2161 24.515 59.2161 27.3577Z" fill="white"/>
<path d="M69.8662 28.7964H63.2548C63.4986 29.9577 64.4245 30.6683 65.7565 30.6683C66.6824 30.6683 67.3484 30.3737 67.9496 29.7671L69.2978 31.3271C68.4856 32.3152 67.2674 32.8353 65.6917 32.8353C62.6702 32.8353 60.7046 30.807 60.7046 28.0339C60.7046 25.243 62.7026 23.2324 65.3666 23.2324C67.933 23.2324 69.9148 25.0698 69.9148 28.0684C69.9148 28.2763 69.8824 28.5709 69.8662 28.7964ZM63.2224 27.2191H67.5273C67.3487 26.0405 66.52 25.2776 65.3832 25.2776C64.2294 25.2776 63.401 26.0232 63.2224 27.2191Z" fill="white"/>
<path d="M76.8668 23.2324V25.7286C76.6555 25.7113 76.4932 25.694 76.2984 25.694C74.9012 25.694 73.9753 26.5088 73.9753 28.2939V32.6966H71.4413V23.3711H73.8616V24.6019C74.479 23.7003 75.5186 23.2324 76.8668 23.2324Z" fill="white"/>
<path d="M29.9002 29.8922C29.3649 30.2348 28.7385 30.4319 28.0692 30.4319C27.4004 30.4319 26.7736 30.2348 26.2383 29.8922C25.735 29.5699 25.3124 29.1189 25.0114 28.5818C24.6903 28.0106 24.5056 27.343 24.5056 26.6292C24.5056 25.9155 24.6903 25.2467 25.0114 24.6755C25.3134 24.1384 25.7361 23.6874 26.2394 23.3663C26.7747 23.0236 27.4004 22.8266 28.0692 22.8266C28.7381 22.8266 29.3638 23.0236 29.8991 23.3663C30.4024 23.6874 30.825 24.1384 31.1271 24.6755L32.931 22.7505C32.5822 22.2542 32.1693 21.8124 31.7031 21.4413C30.6897 20.6312 29.4315 20.1514 28.0692 20.1514C26.707 20.1514 25.4488 20.6312 24.4354 21.4413C23.9696 21.8128 23.5563 22.2542 23.2078 22.7505C22.4493 23.8319 22 25.1745 22 26.6292C22 28.084 22.4496 29.4262 23.2078 30.5068C23.5566 31.0039 23.9696 31.4449 24.4354 31.816C25.4488 32.6261 26.707 33.1055 28.0692 33.1055C29.4315 33.1055 30.6897 32.6257 31.7031 31.816C32.1689 31.4445 32.5822 31.0039 32.931 30.5068L31.1271 28.5818C30.8261 29.1193 30.4035 29.5699 29.9002 29.8922Z" fill="white"/>
<path d="M36.9503 19.4421C36.3977 18.8524 35.5021 18.8528 34.9498 19.4424C34.3979 20.0317 34.3979 20.9871 34.9502 21.5764C35.5024 22.1657 36.3974 22.1657 36.95 21.5768C37.5026 20.9875 37.5026 20.0317 36.9503 19.4421Z" fill="url(#paint1_linear_609_5114)"/>
<path d="M83.3321 23.5098C81.8539 23.5098 80.7012 24.1509 80.0834 25.2607V23.5789H78.9793V32.6966H80.1324V27.9125C80.1324 25.8327 81.2862 24.6188 83.1215 24.6188C84.7461 24.6188 85.6883 25.6068 85.6883 27.531V32.6966H86.8414V27.4096C86.841 24.7924 85.4114 23.5098 83.3321 23.5098Z" fill="url(#paint2_linear_609_5114)"/>
<path d="M95.2316 28.3633C95.2316 30.443 94.1113 31.6742 92.3242 31.6742C90.6996 31.6742 89.7574 30.6862 89.7574 28.7447V23.5791H88.6036V28.8661C88.6036 31.4841 90.0339 32.7836 92.2098 32.7836C93.5742 32.7836 94.6794 32.1425 95.2802 31.0327V32.6972H96.3854V23.5791H95.2316V28.3633Z" fill="url(#paint3_linear_609_5114)"/>
<path d="M106.526 31.6742L111.903 24.3939V23.5791H105.145V24.619H110.425L105.048 31.8817V32.6968H112V31.6742H106.526Z" fill="url(#paint4_linear_609_5114)"/>
<path d="M100.802 21.5854H99.6494V23.5788H98.1227V24.6187H99.6494V30.1312V32.6965H100.802V32.476V24.6187H103.402V23.5788H100.802V21.5854Z" fill="url(#paint5_linear_609_5114)"/>
</g>
<defs>
<linearGradient id="paint0_linear_609_5114" x1="36.0134" y1="16.5353" x2="35.9015" y2="34.4701" gradientUnits="userSpaceOnUse">
<stop stop-color="#00EAEF"/>
<stop offset="1" stop-color="#1B75BC"/>
</linearGradient>
<linearGradient id="paint1_linear_609_5114" x1="35.972" y1="16.535" x2="35.8601" y2="34.4699" gradientUnits="userSpaceOnUse">
<stop stop-color="#00EAEF"/>
<stop offset="1" stop-color="#1B75BC"/>
</linearGradient>
<linearGradient id="paint2_linear_609_5114" x1="82.9719" y1="16.8283" x2="82.86" y2="34.7632" gradientUnits="userSpaceOnUse">
<stop stop-color="#00EAEF"/>
<stop offset="1" stop-color="#1B75BC"/>
</linearGradient>
<linearGradient id="paint3_linear_609_5114" x1="92.556" y1="16.8883" x2="92.4441" y2="34.8231" gradientUnits="userSpaceOnUse">
<stop stop-color="#00EAEF"/>
<stop offset="1" stop-color="#1B75BC"/>
</linearGradient>
<linearGradient id="paint4_linear_609_5114" x1="108.608" y1="16.9885" x2="108.496" y2="34.9233" gradientUnits="userSpaceOnUse">
<stop stop-color="#00EAEF"/>
<stop offset="1" stop-color="#1B75BC"/>
</linearGradient>
<linearGradient id="paint5_linear_609_5114" x1="100.801" y1="16.9394" x2="100.689" y2="34.8743" gradientUnits="userSpaceOnUse">
<stop stop-color="#00EAEF"/>
<stop offset="1" stop-color="#1B75BC"/>
</linearGradient>
<clipPath id="clip0_609_5114">
<rect width="400" height="400" rx="32" fill="white"/>
</clipPath>
<clipPath id="clip1_609_5114">
<rect width="320" height="243" fill="white" transform="translate(-15 -2)"/>
</clipPath>
</defs>
</svg>
